<?xml version="1.0" encoding="UTF-8"?>
<svg id="Layer_2" data-name="Layer 2" xmlns="http://www.w3.org/2000/svg" xmlns:xlink="http://www.w3.org/1999/xlink" viewBox="0 0 17.24 17.22">
  <defs>
    <style>
      .cls-1 {
        fill: #e97c00;
      }

      .cls-2 {
        clip-path: url(#clippath);
      }

      .cls-3 {
        fill: #ef9748;
      }

      .cls-4 {
        fill: #b25900;
      }
    </style>
    <clipPath id="clippath">
      <path class="cls-4" d="m16.25,8.62l-1.32-1.9c-.15-.27-.24-.56-.29-.87l-.29-2.17c-.18-1.43-1.34-2.58-2.77-2.33l-2.34.58c-.3.05-.61.05-.91,0l-2.16-.41c-1.43-.26-2.77.73-2.96,2.16l-.29,2.17c-.03.3-.14.59-.27.87l-1.5,1.9c-.68,1.26-.85,3.51.82,4.06,1.67.53,2.58-.09,3.74.76,1.14.85.61,1.19,1.31,2.28.71,1.09,2.81.3,3.81-.74l1.29-1.37c.21-.21.64-.64,1.02-.73.38-.11,2.13-.46,2.13-.46,1.31-.62,1.69-2.54.99-3.8Zm-7.63,3.33c-1.84,0-3.33-1.49-3.33-3.33s1.49-3.34,3.33-3.34,3.34,1.49,3.34,3.34-1.5,3.33-3.34,3.33Z"/>
    </clipPath>
  </defs>
  <g id="Layer_1-2" data-name="Layer 1">
    <g>
      <path class="cls-1" d="m8.62,0C3.86,0,0,3.86,0,8.62s3.86,8.6,8.62,8.6,8.62-3.85,8.62-8.6S13.38,0,8.62,0Zm0,11.95c-1.84,0-3.33-1.49-3.33-3.33s1.49-3.34,3.33-3.34,3.34,1.49,3.34,3.34-1.5,3.33-3.34,3.33Z"/>
      <g>
        <path class="cls-4" d="m16.25,8.62l-1.32-1.9c-.15-.27-.24-.56-.29-.87l-.29-2.17c-.18-1.43-1.34-2.58-2.77-2.33l-2.34.58c-.3.05-.61.05-.91,0l-2.16-.41c-1.43-.26-2.77.73-2.96,2.16l-.29,2.17c-.03.3-.14.59-.27.87l-1.5,1.9c-.68,1.26-.85,3.51.82,4.06,1.67.53,2.58-.09,3.74.76,1.14.85.61,1.19,1.31,2.28.71,1.09,2.81.3,3.81-.74l1.29-1.37c.21-.21.64-.64,1.02-.73.38-.11,2.13-.46,2.13-.46,1.31-.62,1.69-2.54.99-3.8Zm-7.63,3.33c-1.84,0-3.33-1.49-3.33-3.33s1.49-3.34,3.33-3.34,3.34,1.49,3.34,3.34-1.5,3.33-3.34,3.33Z"/>
        <g class="cls-2">
          <path class="cls-3" d="m1.13,6.73c2.51-.71,4.59-2.19,6.38-4.04.44-.46.86-1.05,1.48-1.27.45-.16,1.42-.21,1.34.46-.06.49-.38.98-.63,1.4-1.37,2.27-3.25,4.11-5.1,5.98-.5.51-1.01,1.03-1.43,1.61-.27.38-.85,1.16-.47,1.64.28.36.93.25,1.31.14.84-.24,1.61-.81,2.33-1.28,1.65-1.07,3.19-2.3,4.67-3.59,1.57-1.37,3-2.97,4.7-4.17l-.4-.16c.9,2.23-.49,4.39-2.12,5.83-.8.71-1.68,1.33-2.54,1.98-.52.38-1.03.77-1.55,1.15-.36.27-.79.52-1.1.85-.53.58-.29,1.21.4,1.5.8.33,1.69.13,2.48-.15,2.1-.73,4.06-1.87,5.99-2.97.3-.17.03-.64-.27-.46-1.77,1-3.54,2.02-5.44,2.76-.51.2-1.04.4-1.59.44-.51.04-1.67-.14-1.04-.87.36-.42.99-.75,1.44-1.08.42-.31.84-.62,1.26-.94,2.5-1.86,6.08-4.6,4.62-8.2-.06-.15-.24-.27-.4-.16-1.47,1.03-2.72,2.38-4.06,3.58s-2.79,2.42-4.3,3.48c-.7.49-1.42.96-2.16,1.39-.39.23-.8.49-1.26.57-.35.06-.62.04-.44-.35.11-.24.26-.47.41-.68,1.04-1.47,2.54-2.62,3.75-3.94.7-.76,1.34-1.57,1.95-2.41.57-.78,1.21-1.65,1.47-2.59.25-.89-.35-1.44-1.27-1.43-.72,0-1.28.38-1.77.87-1.98,2.02-3.99,3.78-6.78,4.57-.33.09-.19.61.14.52h0Z"/>
        </g>
      </g>
    </g>
  </g>
</svg>