<?xml version="1.0" encoding="UTF-8"?>
<svg id="Layer_2" data-name="Layer 2" xmlns="http://www.w3.org/2000/svg" viewBox="0 0 17.19 17.23">
  <defs>
    <style>
      .cls-1 {
        stroke-dasharray: 0 0 .15 1.47;
        stroke-width: .73px;
      }

      .cls-1, .cls-2 {
        stroke: #e97c00;
        stroke-linecap: round;
        stroke-miterlimit: 10;
      }

      .cls-1, .cls-2, .cls-3 {
        fill: none;
      }

      .cls-4 {
        opacity: .5;
      }

      .cls-5 {
        fill: #e97c00;
      }

      .cls-2 {
        stroke-dasharray: 0 0 .15 1.52;
        stroke-width: .78px;
      }

      .cls-6 {
        fill: #b25900;
      }
    </style>
  </defs>
  <g id="Layer_1-2" data-name="Layer 1">
    <g>
      <g class="cls-4">
        <path class="cls-1" d="m16.83,8.62C16.83,4.06,13.13.36,8.57.36c-10.95.43-10.94,16.07,0,16.51,4.56,0,8.25-3.7,8.25-8.25h0Z"/>
      </g>
      <g class="cls-4">
        <path class="cls-2" d="m12.29,8.62c-.15-4.92-7.29-4.92-7.44,0,.15,4.92,7.29,4.92,7.44,0h0Z"/>
      </g>
      <path class="cls-5" d="m8.58,0C7.17,0,5.84.34,4.68.93c.63-.28,1.08.12,1.14.57.04.2-.01.44-.16.61,1.41-.55,1.98,1.19.93,2.07,1.01-.33,1.46.9.95,1.25.34-.1.68-.16,1.05-.16,1.84,0,3.34,1.5,3.34,3.35,0,.51-.12.98-.32,1.41,1.08-1.06,2.08-1.34,2.99-.54-.03-.68.52-1.31,1.17-1.53.51-.17,1.06-.1,1.43.41C17.06,3.73,13.24,0,8.58,0Z"/>
      <path class="cls-6" d="m14.89,6.73c-.16-.28-.25-.57-.29-.87l-.29-2.17c-.17-1.43-1.34-2.59-2.77-2.33l-2.34.58c-.29.04-.6.04-.9,0l-2.16-.41c-.12-.01-.22-.03-.32-.03.04.2-.01.44-.16.61,1.41-.55,1.98,1.19.93,2.07,1.01-.33,1.46.9.95,1.25.34-.1.68-.16,1.05-.16,1.84,0,3.34,1.5,3.34,3.35,0,.51-.12.98-.32,1.41,1.08-1.06,2.08-1.34,2.99-.54-.03-.68.52-1.31,1.17-1.53l-.86-1.24Z"/>
      <path class="cls-3" d="m17.19,8.39h-.01c-.36-.52-.92-.6-1.43-.42-.64.22-1.19.84-1.17,1.53-.9-.8-1.91-.52-2.99.54"/>
      <path class="cls-3" d="m7.52,5.45h.01c.51-.36.06-1.6-.95-1.27,1.05-.87.48-2.62-.93-2.07.15-.17.2-.41.16-.61-.06-.45-.51-.84-1.14-.57"/>
    </g>
  </g>
</svg>