<svg id="Layer_1" data-name="Layer 1" xmlns="http://www.w3.org/2000/svg" xmlns:xlink="http://www.w3.org/1999/xlink" viewBox="0 0 968.16 896.69"><defs><style>.cls-1{fill:#e97c00;}.cls-15,.cls-2{fill:#ffecd2;}.cls-3{fill:#fff;}.cls-4{fill:none;}.cls-5{clip-path:url(#clip-path);}.cls-6{fill:#c86442;}.cls-7{clip-path:url(#clip-path-2);}.cls-8{clip-path:url(#clip-path-3);}.cls-9{fill:#e27f3b;}.cls-15,.cls-9{opacity:0.5;}.cls-10{fill:#f0b687;}.cls-11{clip-path:url(#clip-path-4);}.cls-12{fill:#482f18;}.cls-13{clip-path:url(#clip-path-5);}.cls-14{clip-path:url(#clip-path-6);}.cls-16{clip-path:url(#clip-path-7);}</style><clipPath id="clip-path" transform="translate(-56.27 -91.65)"><path class="cls-1" d="M307.64,920.9S231.7,963.42,262,977.06c12.63,5.7,41-3,60.77-13,8.24-4.13,12.22-3.91,17.78,2.73,9.17,10.94,25.69,26,40.34,20.24,23.62-9.32,14.28-62,14.28-62Z"/></clipPath><clipPath id="clip-path-2" transform="translate(-56.27 -91.65)"><path class="cls-1" d="M757.15,920.9s75.94,42.52,45.69,56.16c-12.63,5.7-41-3-60.77-13-8.24-4.13-12.21-3.91-17.78,2.73-9.17,10.94-25.69,26-40.34,20.24-23.62-9.32-14.28-62-14.28-62Z"/></clipPath><clipPath id="clip-path-3" transform="translate(-56.27 -91.65)"><path class="cls-2" d="M924,330.2c8.68-85.1-59.06-139.63-134.74-166.14C752,151,716,156.18,684.87,172.55A184.13,184.13,0,0,0,378,175.47C344.54,158,306.68,152,269.42,165.08c-76,26.63-132.27,82.8-121.85,168.63-63.31,18.81-95.45,64-89.86,136.89C64.11,554,109,597.77,175.8,591.73l.83-.08c5.57,115,16.54,197.55,32.32,305.82,1.49,10.21,15.91,25.53,38.65,27.39,192.59,15.84,368.71,14.91,579.46-1.21,17.65-1.34,32.43-18,33.94-28.3,15.88-108.92,24.65-191,28.66-306.61,4.85.76,9.71,1.36,14.54,1.79,66.83,6,111.7-37.78,118.08-121.13C1028.12,393.36,992.87,347.46,924,330.2Z"/></clipPath><clipPath id="clip-path-4" transform="translate(-56.27 -91.65)"><path class="cls-3" d="M420,666.25c-23.1,2.91-29.84,3-45.36,3.37-37,1-88.58,1.07-87-30.67,1.74-35.22,40.69-35.62,61.56-37.76s54.66-4.64,82.46-4,59.55-1.32,60.92,24.9S441.58,663.53,420,666.25Z"/></clipPath><clipPath id="clip-path-5" transform="translate(-56.27 -91.65)"><path class="cls-3" d="M644.8,666.25c23.1,2.91,29.85,3,45.37,3.37,37,1,88.58,1.07,87-30.67-1.74-35.22-40.68-35.62-61.56-37.76s-54.66-4.64-82.46-4-59.55-1.32-60.92,24.9S623.21,663.53,644.8,666.25Z"/></clipPath><clipPath id="clip-path-6" transform="translate(-56.27 -91.65)"><path class="cls-1" d="M521.82,732.3a421.78,421.78,0,0,1-76.28-62.77c-8.71-8.93-3.82-22.35,9.31-25.8q76.83-20.19,158.63.27c13.31,3.33,18.15,17.08,9.19,26-22.94,22.78-49.54,42.4-79.6,62.8C538,736.2,527,735.63,521.82,732.3Z"/></clipPath><clipPath id="clip-path-7" transform="translate(-56.27 -91.65)"><path class="cls-4" d="M924,330.2c8.68-85.11-59.06-139.63-134.74-166.14C752,151,716,156.17,684.87,172.55A184.14,184.14,0,0,0,378,175.48C344.54,158,306.67,152,269.42,165.08c-76,26.63-132.27,82.8-121.86,168.63-63.3,18.82-95.43,64-89.85,136.89C64.11,554,109,597.76,175.8,591.73l.83-.08c5.57,115,16.54,197.55,32.32,305.82,1.49,10.21,15.91,25.53,38.64,27.4,192.6,15.83,368.72,14.89,579.47-1.22,17.65-1.35,32.44-18,33.94-28.3,15.88-108.93,24.65-191,28.66-306.6,4.85.75,9.71,1.35,14.54,1.78,66.83,6,111.7-37.77,118.09-121.13C1028.12,393.36,992.87,347.45,924,330.2Z"/></clipPath></defs><path class="cls-1" d="M307.64,920.9S231.7,963.42,262,977.06c12.63,5.7,41-3,60.77-13,8.24-4.13,12.22-3.91,17.78,2.73,9.17,10.94,25.69,26,40.34,20.24,23.62-9.32,14.28-62,14.28-62Z" transform="translate(-56.27 -91.65)"/><g class="cls-5"><path class="cls-6" d="M277.4,933.85c34.89,7.92,86.46,11.66,125.47,8.07l-5.93-21-102.07-6.44Z" transform="translate(-56.27 -91.65)"/></g><path class="cls-1" d="M757.15,920.9s75.94,42.52,45.69,56.16c-12.63,5.7-41-3-60.77-13-8.24-4.13-12.21-3.91-17.78,2.73-9.17,10.94-25.69,26-40.34,20.24-23.62-9.32-14.28-62-14.28-62Z" transform="translate(-56.27 -91.65)"/><g class="cls-7"><path class="cls-6" d="M786.13,933.1c-34.89,7.92-86.47,11.66-125.48,8.07l5.93-21,102.08-6.43Z" transform="translate(-56.27 -91.65)"/></g><path class="cls-2" d="M924,330.2c8.68-85.1-59.06-139.63-134.74-166.14C752,151,716,156.18,684.87,172.55A184.13,184.13,0,0,0,378,175.47C344.54,158,306.68,152,269.42,165.08c-76,26.63-132.27,82.8-121.85,168.63-63.31,18.81-95.45,64-89.86,136.89C64.11,554,109,597.77,175.8,591.73l.83-.08c5.57,115,16.54,197.55,32.32,305.82,1.49,10.21,15.91,25.53,38.65,27.39,192.59,15.84,368.71,14.91,579.46-1.21,17.65-1.34,32.43-18,33.94-28.3,15.88-108.92,24.65-191,28.66-306.61,4.85.76,9.71,1.36,14.54,1.79,66.83,6,111.7-37.78,118.08-121.13C1028.12,393.36,992.87,347.46,924,330.2Z" transform="translate(-56.27 -91.65)"/><g class="cls-8"><path class="cls-9" d="M925.5,329.28c11.35-91.07-90.21-172.43-180.17-172.59a128.25,128.25,0,0,0-61.2,15.86C615.66,64.68,443.59,66.42,377.25,175.47,275,119.65,128.59,214.39,146.83,333.71,8.48,360.75,37,611.63,175.89,591.65c5.57,115,16.54,197.55,32.32,305.82,1.49,10.21,15.91,25.53,38.65,27.39,192.59,15.84,368.71,14.91,579.46-1.21,17.65-1.34,32.43-18,33.95-28.3,15.87-108.92,24.64-191,28.65-306.61,44.67,9.92,80.56-5.7,103.4-33.34C1048,488,1034.67,347.76,925.5,329.28Zm77.62,135.82c-2.57,79-32.71,120.08-98,112a36.48,36.48,0,0,1-15-5.32A76.86,76.86,0,0,0,877.08,565a8.15,8.15,0,0,0-11,7.83c2.71,125.06,2,201.71-22.12,303.23-2.82,11.86-10.1,27-22.59,28.16-183.69,16.85-393.55,19.19-569.64.92-9.66-1-21.6-7.62-24.57-19.9-20.68-85.67-27-121-25.53-306a14.27,14.27,0,0,0-17.6-14c-12.51,3-8.43,8.63-23.38,9.78C72.31,581.81,53.07,429.18,90.83,387.17c33.89-37.7,38.11-22.05,61.32-30.11a18.54,18.54,0,0,0,12-21.9,83.94,83.94,0,0,1-2-13.64C155.92,234,247.48,177.07,307.54,176.39c12.37-.14,53.67.58,70.84,19.9a4.49,4.49,0,0,0,7.58-1.48c15.83-43.34,103.29-84.32,150.29-81.95,76.56,3.85,139.65,61.24,135.53,74.26-6.93,21.89,38.68-26.54,111.53-6.21C887.71,210,923.62,304.72,899.92,329.27c-7.54,7.81,6.15,20.69,16.61,23.55C972.47,368.09,1005.68,386.06,1003.12,465.1Z" transform="translate(-56.27 -91.65)"/></g><path class="cls-6" d="M475.86,658.44c0,20.76-43.29,37.6-96.68,37.6S272.58,672.2,273.1,645.69c.41-20.76,52.69-24.86,106.08-24.86S475.86,637.67,475.86,658.44Z" transform="translate(-56.27 -91.65)"/><path class="cls-6" d="M788.1,655.28c-7,19.89-49,39.56-103.27,39.56s-98.37-16.84-98.37-37.6,44-37.61,98.37-37.61S795,635.7,788.1,655.28Z" transform="translate(-56.27 -91.65)"/><path class="cls-10" d="M507.53,620.84c-2-36.85-42.07-37.42-68.59-37.79-2.34,0-4.67-.06-7-.12-3-.06-6.15-.09-9.37-.09-31.56,0-65.35,3.1-75,4.06-1.62.16-3.36.31-5.19.47-12,1-26.93,2.33-40.4,8.21-18.27,8-28.45,22.39-29.43,41.66-.53,10.49,2.82,19.5,10,26.78,16.07,16.38,48.24,18.48,74.47,18.48,6.46,0,12.69-.14,17.94-.27l2.33-.06c14.1-.36,21.86-.55,44.52-3.32C446.4,675.85,509.63,659.58,507.53,620.84Z" transform="translate(-56.27 -91.65)"/><path class="cls-10" d="M791.72,637.24c-1-19.28-11.16-33.68-29.43-41.66-13.47-5.88-28.4-7.18-40.4-8.21-1.83-.16-3.57-.31-5.19-.47-9.6-.95-43.37-4.06-75-4.06-3.22,0-6.38,0-9.37.09-2.3.06-4.63.09-7,.12-26.52.37-66.6.94-68.59,37.79-2.1,38.74,61.13,55,85.66,58,22.66,2.77,30.42,3,44.52,3.32l2.33.06c5.25.13,11.48.27,17.94.27,26.23,0,58.4-2.1,74.48-18.48A34.28,34.28,0,0,0,791.72,637.24Z" transform="translate(-56.27 -91.65)"/><path class="cls-3" d="M420,666.25c-23.1,2.91-29.84,3-45.36,3.37-37,1-88.58,1.07-87-30.67,1.74-35.22,40.69-35.62,61.56-37.76s54.66-4.64,82.46-4,59.55-1.32,60.92,24.9S441.58,663.53,420,666.25Z" transform="translate(-56.27 -91.65)"/><path class="cls-3" d="M420,666.25c-23.1,2.91-29.84,3-45.36,3.37-37,1-88.58,1.07-87-30.67,1.74-35.22,40.69-35.62,61.56-37.76s54.66-4.64,82.46-4,59.55-1.32,60.92,24.9S441.58,663.53,420,666.25Z" transform="translate(-56.27 -91.65)"/><g class="cls-11"><path class="cls-12" d="M408.54,632.61c-1.09-17.5-9.42-23.5-22.49-22.81s-21.06,7.05-20,25,10.76,23.43,22.48,22.82S409.63,650.11,408.54,632.61Z" transform="translate(-56.27 -91.65)"/></g><path class="cls-3" d="M644.8,666.25c23.1,2.91,29.85,3,45.37,3.37,37,1,88.58,1.07,87-30.67-1.74-35.22-40.68-35.62-61.56-37.76s-54.66-4.64-82.46-4-59.55-1.32-60.92,24.9S623.21,663.53,644.8,666.25Z" transform="translate(-56.27 -91.65)"/><g class="cls-13"><path class="cls-12" d="M656.25,632.61c1.1-17.5,9.42-23.5,22.49-22.81s21.07,7.05,20,25S688,658.26,676.23,657.65,655.16,650.11,656.25,632.61Z" transform="translate(-56.27 -91.65)"/></g><path class="cls-1" d="M521.82,732.3a421.78,421.78,0,0,1-76.28-62.77c-8.71-8.93-3.82-22.35,9.31-25.8q76.83-20.19,158.63.27c13.31,3.33,18.15,17.08,9.19,26-22.94,22.78-49.54,42.4-79.6,62.8C538,736.2,527,735.63,521.82,732.3Z" transform="translate(-56.27 -91.65)"/><g class="cls-14"><path class="cls-6" d="M464.8,685.77a49.87,49.87,0,0,1-14.07-16.53c-6.17-11.9-3.71-18.67,1.73-23,7-5.57,16.76-8.85,16.76-8.85L444.58,642l-7.79,20.9,14.79,16.62L511,743.07H552l62.43-65.14C568.68,722.47,526.22,732.85,464.8,685.77Z" transform="translate(-56.27 -91.65)"/></g><ellipse class="cls-15" cx="568.33" cy="658.06" rx="10.62" ry="23.47" transform="translate(-188.45 1081.51) rotate(-85.51)"/><g class="cls-16"><ellipse class="cls-9" cx="787.18" cy="850.89" rx="21.31" ry="19.7" transform="translate(-321.66 273.68) rotate(-22.46)"/><circle class="cls-9" cx="689.23" cy="731.83" r="13.4"/><ellipse class="cls-9" cx="781.7" cy="798.26" rx="9.73" ry="9.59" transform="translate(-191.9 1344.39) rotate(-80.41)"/><ellipse class="cls-9" cx="853.59" cy="262.34" rx="9.73" ry="9.59" transform="translate(396.43 968.65) rotate(-80.41)"/><ellipse class="cls-9" cx="978.92" cy="481.29" rx="9.73" ry="9.59" transform="translate(284.99 1274.69) rotate(-80.41)"/><path class="cls-9" d="M147,401.72a11.73,11.73,0,0,0-23.14-3.91c-1.08,6.39,2.44,10.72,8.82,11.8S145.89,408.11,147,401.72Z" transform="translate(-56.27 -91.65)"/><path class="cls-9" d="M309,857.7c-1.32-9.7-9.4-15.4-19.85-14s-19.33,9.43-18,19.14,10.87,16.42,21.32,15S310.33,867.41,309,857.7Z" transform="translate(-56.27 -91.65)"/><circle class="cls-9" cx="202.43" cy="723.03" r="14.52"/><path class="cls-9" d="M868,320.56c-1.32-9.7-9.4-15.4-19.85-14s-19.33,9.44-18,19.14,10.87,16.42,21.32,15S869.34,330.27,868,320.56Z" transform="translate(-56.27 -91.65)"/><path class="cls-9" d="M246.84,261.27c-1.32-9.71-9.4-15.41-19.85-14s-19.32,9.43-18,19.14,10.87,16.42,21.33,15S248.17,271,246.84,261.27Z" transform="translate(-56.27 -91.65)"/><circle class="cls-9" cx="752.95" cy="190.79" r="14.52"/><ellipse class="cls-9" cx="120.8" cy="457.05" rx="16.01" ry="14.52" transform="translate(-168.93 -45.68) rotate(-14.79)"/><ellipse class="cls-9" cx="955.22" cy="533.01" rx="16.01" ry="14.52" transform="matrix(0.97, -0.26, 0.26, 0.97, -160.68, 169.82)"/></g></svg>